<svg xmlns="http://www.w3.org/2000/svg" xmlns:xlink="http://www.w3.org/1999/xlink" width="960" height="480" viewBox="0 0 720 360"><defs><style>*{stroke-linejoin:round;stroke-linecap:butt}</style></defs><g id="figure_1"><path id="patch_1" d="M0 360h720V0H0z" style="fill:#fff"/><g id="axes_1"><path id="patch_2" d="M180 306h288V36H180z" style="fill:#fff"/><g id="matplotlib.axis_1"><g id="xtick_1"><g id="line2d_1"><defs><path id="m35759eaa7e" d="M0 0v3.5" style="stroke:#000;stroke-width:.8"/></defs><use xlink:href="#m35759eaa7e" x="248.529" y="306" style="stroke:#000;stroke-width:.8"/></g><g id="text_1" transform="matrix(.14 0 0 -.14 232.08 323.638)"><defs><path id="DejaVuSans-31" d="M794 531h1031v3560L703 3866v575l1116 225h631V531h1031V0H794z" transform="scale(.01563)"/><path id="DejaVuSans-30" d="M2034 4250q-487 0-733-480-245-479-245-1442 0-959 245-1439 246-480 733-480 491 0 736 480 246 480 246 1439 0 963-246 1442-245 480-736 480m0 500q785 0 1199-621 414-620 414-1801 0-1178-414-1799Q2819-91 2034-91q-784 0-1198 620-414 621-414 1799 0 1181 414 1801 414 621 1198 621" transform="scale(.01563)"/><path id="DejaVuSans-2212" d="M678 2272h4006v-531H678z" transform="scale(.01563)"/><path id="DejaVuSans-35" d="M691 4666h2478v-532H1269V2991q137 47 274 70 138 23 276 23 781 0 1237-428 457-428 457-1159 0-753-469-1171Q2575-91 1722-91q-294 0-599 50Q819 9 494 109v635q281-153 581-228t634-75q541 0 856 284 316 284 316 772 0 487-316 771-315 285-856 285-253 0-505-56-251-56-513-175z" transform="scale(.01563)"/></defs><use xlink:href="#DejaVuSans-31" transform="translate(0 .684)"/><use xlink:href="#DejaVuSans-30" transform="translate(63.623 .684)"/><use xlink:href="#DejaVuSans-2212" transform="matrix(.7 0 0 .7 128.203 38.966)"/><use xlink:href="#DejaVuSans-35" transform="matrix(.7 0 0 .7 186.855 38.966)"/></g></g><g id="xtick_2"><use xlink:href="#m35759eaa7e" id="line2d_2" x="327.843" y="306" style="stroke:#000;stroke-width:.8"/><g id="text_2" transform="matrix(.14 0 0 -.14 311.393 323.638)"><defs><path id="DejaVuSans-34" d="M2419 4116 825 1625h1594zm-166 550h794V1625h666v-525h-666V0h-628v1100H313v609z" transform="scale(.01563)"/></defs><use xlink:href="#DejaVuSans-31" transform="translate(0 .684)"/><use xlink:href="#DejaVuSans-30" transform="translate(63.623 .684)"/><use xlink:href="#DejaVuSans-2212" transform="matrix(.7 0 0 .7 128.203 38.966)"/><use xlink:href="#DejaVuSans-34" transform="matrix(.7 0 0 .7 186.855 38.966)"/></g></g><g id="xtick_3"><use xlink:href="#m35759eaa7e" id="line2d_3" x="407.157" y="306" style="stroke:#000;stroke-width:.8"/><g id="text_3" transform="matrix(.14 0 0 -.14 390.707 323.638)"><defs><path id="DejaVuSans-33" d="M2597 2516q453-97 707-404 255-306 255-756 0-690-475-1069Q2609-91 1734-91q-293 0-604 58T488 141v609q262-153 574-231 313-78 654-78 593 0 904 234t311 681q0 413-289 645-289 233-804 233h-544v519h569q465 0 712 186t247 536q0 359-255 551-254 193-729 193-260 0-557-57-297-56-653-174v562q360 100 674 150t592 50q719 0 1137-327 419-326 419-882 0-388-222-655t-631-370" transform="scale(.01563)"/></defs><use xlink:href="#DejaVuSans-31" transform="translate(0 .766)"/><use xlink:href="#DejaVuSans-30" transform="translate(63.623 .766)"/><use xlink:href="#DejaVuSans-2212" transform="matrix(.7 0 0 .7 128.203 39.047)"/><use xlink:href="#DejaVuSans-33" transform="matrix(.7 0 0 .7 186.855 39.047)"/></g></g><g id="xtick_4"><g id="line2d_4"><defs><path id="m046bde9cb8" d="M0 0v2" style="stroke:#000;stroke-width:.6"/></defs><use xlink:href="#m046bde9cb8" x="193.091" y="306" style="stroke:#000;stroke-width:.6"/></g></g><g id="xtick_5"><use xlink:href="#m046bde9cb8" id="line2d_5" x="207.057" y="306" style="stroke:#000;stroke-width:.6"/></g><g id="xtick_6"><use xlink:href="#m046bde9cb8" id="line2d_6" x="216.967" y="306" style="stroke:#000;stroke-width:.6"/></g><g id="xtick_7"><use xlink:href="#m046bde9cb8" id="line2d_7" x="224.653" y="306" style="stroke:#000;stroke-width:.6"/></g><g id="xtick_8"><use xlink:href="#m046bde9cb8" id="line2d_8" x="230.933" y="306" style="stroke:#000;stroke-width:.6"/></g><g id="xtick_9"><use xlink:href="#m046bde9cb8" id="line2d_9" x="236.243" y="306" style="stroke:#000;stroke-width:.6"/></g><g id="xtick_10"><use xlink:href="#m046bde9cb8" id="line2d_10" x="240.843" y="306" style="stroke:#000;stroke-width:.6"/></g><g id="xtick_11"><use xlink:href="#m046bde9cb8" id="line2d_11" x="244.9" y="306" style="stroke:#000;stroke-width:.6"/></g><g id="xtick_12"><use xlink:href="#m046bde9cb8" id="line2d_12" x="272.405" y="306" style="stroke:#000;stroke-width:.6"/></g><g id="xtick_13"><use xlink:href="#m046bde9cb8" id="line2d_13" x="286.372" y="306" style="stroke:#000;stroke-width:.6"/></g><g id="xtick_14"><use xlink:href="#m046bde9cb8" id="line2d_14" x="296.281" y="306" style="stroke:#000;stroke-width:.6"/></g><g id="xtick_15"><use xlink:href="#m046bde9cb8" id="line2d_15" x="303.967" y="306" style="stroke:#000;stroke-width:.6"/></g><g id="xtick_16"><use xlink:href="#m046bde9cb8" id="line2d_16" x="310.247" y="306" style="stroke:#000;stroke-width:.6"/></g><g id="xtick_17"><use xlink:href="#m046bde9cb8" id="line2d_17" x="315.557" y="306" style="stroke:#000;stroke-width:.6"/></g><g id="xtick_18"><use xlink:href="#m046bde9cb8" id="line2d_18" x="320.157" y="306" style="stroke:#000;stroke-width:.6"/></g><g id="xtick_19"><use xlink:href="#m046bde9cb8" id="line2d_19" x="324.214" y="306" style="stroke:#000;stroke-width:.6"/></g><g id="xtick_20"><use xlink:href="#m046bde9cb8" id="line2d_20" x="351.719" y="306" style="stroke:#000;stroke-width:.6"/></g><g id="xtick_21"><use xlink:href="#m046bde9cb8" id="line2d_21" x="365.686" y="306" style="stroke:#000;stroke-width:.6"/></g><g id="xtick_22"><use xlink:href="#m046bde9cb8" id="line2d_22" x="375.595" y="306" style="stroke:#000;stroke-width:.6"/></g><g id="xtick_23"><use xlink:href="#m046bde9cb8" id="line2d_23" x="383.281" y="306" style="stroke:#000;stroke-width:.6"/></g><g id="xtick_24"><use xlink:href="#m046bde9cb8" id="line2d_24" x="389.562" y="306" style="stroke:#000;stroke-width:.6"/></g><g id="xtick_25"><use xlink:href="#m046bde9cb8" id="line2d_25" x="394.871" y="306" style="stroke:#000;stroke-width:.6"/></g><g id="xtick_26"><use xlink:href="#m046bde9cb8" id="line2d_26" x="399.471" y="306" style="stroke:#000;stroke-width:.6"/></g><g id="xtick_27"><use xlink:href="#m046bde9cb8" id="line2d_27" x="403.528" y="306" style="stroke:#000;stroke-width:.6"/></g><g id="xtick_28"><use xlink:href="#m046bde9cb8" id="line2d_28" x="431.033" y="306" style="stroke:#000;stroke-width:.6"/></g><g id="xtick_29"><use xlink:href="#m046bde9cb8" id="line2d_29" x="445" y="306" style="stroke:#000;stroke-width:.6"/></g><g id="xtick_30"><use xlink:href="#m046bde9cb8" id="line2d_30" x="454.909" y="306" style="stroke:#000;stroke-width:.6"/></g><g id="xtick_31"><use xlink:href="#m046bde9cb8" id="line2d_31" x="462.595" y="306" style="stroke:#000;stroke-width:.6"/></g><g id="text_4" transform="matrix(.14 0 0 -.14 277.166 341.187)"><defs><path id="DejaVuSans-4c" d="M628 4666h631V531h2272V0H628z" transform="scale(.01563)"/><path id="DejaVuSans-65" d="M3597 1894v-281H953q38-594 358-905t892-311q331 0 642 81t618 244V178Q3153 47 2828-22t-659-69q-838 0-1327 487-489 488-489 1320 0 859 464 1363 464 505 1252 505 706 0 1117-455 411-454 411-1235m-575 169q-6 471-264 752-258 282-683 282-481 0-770-272t-333-766z" transform="scale(.01563)"/><path id="DejaVuSans-61" d="M2194 1759q-697 0-966-159t-269-544q0-306 202-486 202-179 548-179 479 0 768 339t289 901v128zm1147 238V0h-575v531q-197-318-491-470T1556-91q-537 0-855 302-317 302-317 808 0 590 395 890 396 300 1180 300h807v57q0 397-261 614t-733 217q-300 0-585-72-284-72-546-216v532q315 122 612 182 297 61 578 61 760 0 1135-394 375-393 375-1193" transform="scale(.01563)"/><path id="DejaVuSans-72" d="M2631 2963q-97 56-211 82-114 27-251 27-488 0-749-317t-261-911V0H581v3500h578v-544q182 319 472 473 291 155 707 155 59 0 131-8 72-7 159-23z" transform="scale(.01563)"/><path id="DejaVuSans-6e" d="M3513 2113V0h-575v2094q0 497-194 743-194 247-581 247-466 0-735-297-269-296-269-809V0H581v3500h578v-544q207 316 486 472 280 156 646 156 603 0 912-373 310-373 310-1098" transform="scale(.01563)"/><path id="DejaVuSans-69" d="M603 3500h575V0H603zm0 1363h575v-729H603z" transform="scale(.01563)"/><path id="DejaVuSans-67" d="M2906 1791q0 625-258 968-257 344-723 344-462 0-720-344-258-343-258-968 0-622 258-966t720-344q466 0 723 344 258 344 258 966m575-1357q0-893-397-1329-396-436-1215-436-303 0-572 45t-522 139v559q253-137 500-202 247-66 503-66 566 0 847 295t281 892v285q-178-310-456-463T1784 0Q1141 0 747 490 353 981 353 1791q0 812 394 1302 394 491 1037 491 388 0 666-153t456-462v531h575z" transform="scale(.01563)"/><path id="DejaVuSans-74" d="M1172 4494v-994h1184v-447H1172V1153q0-428 117-550t477-122h590V0h-590q-666 0-919 248-253 249-253 905v1900H172v447h422v994z" transform="scale(.01563)"/></defs><use xlink:href="#DejaVuSans-4c"/><use xlink:href="#DejaVuSans-65" transform="translate(53.963)"/><use xlink:href="#DejaVuSans-61" transform="translate(115.486)"/><use xlink:href="#DejaVuSans-72" transform="translate(176.766)"/><use xlink:href="#DejaVuSans-6e" transform="translate(216.129)"/><use xlink:href="#DejaVuSans-69" transform="translate(279.508)"/><use xlink:href="#DejaVuSans-6e" transform="translate(307.291)"/><use xlink:href="#DejaVuSans-67" transform="translate(370.67)"/><use xlink:href="#DejaVuSans-72" transform="translate(465.934)"/><use xlink:href="#DejaVuSans-61" transform="translate(507.047)"/><use xlink:href="#DejaVuSans-74" transform="translate(568.326)"/><use xlink:href="#DejaVuSans-65" transform="translate(607.535)"/></g></g><g id="matplotlib.axis_2"><g id="ytick_1"><g id="line2d_32"><defs><path id="m711d6ee226" d="M0 0h-3.5" style="stroke:#000;stroke-width:.8"/></defs><use xlink:href="#m711d6ee226" x="180" y="306" style="stroke:#000;stroke-width:.8"/></g><g id="text_5" transform="matrix(.14 0 0 -.14 141.828 311.319)"><defs><path id="DejaVuSans-2e" d="M684 794h660V0H684z" transform="scale(.01563)"/></defs><use xlink:href="#DejaVuSans-30"/><use xlink:href="#DejaVuSans-2e" transform="translate(63.623)"/><use xlink:href="#DejaVuSans-35" transform="translate(95.41)"/><use xlink:href="#DejaVuSans-30" transform="translate(159.033)"/></g></g><g id="ytick_2"><use xlink:href="#m711d6ee226" id="line2d_33" x="180" y="261" style="stroke:#000;stroke-width:.8"/><g id="text_6" transform="matrix(.14 0 0 -.14 141.828 266.319)"><use xlink:href="#DejaVuSans-30"/><use xlink:href="#DejaVuSans-2e" transform="translate(63.623)"/><use xlink:href="#DejaVuSans-35" transform="translate(95.41)"/><use xlink:href="#DejaVuSans-35" transform="translate(159.033)"/></g></g><g id="ytick_3"><use xlink:href="#m711d6ee226" id="line2d_34" x="180" y="216" style="stroke:#000;stroke-width:.8"/><g id="text_7" transform="matrix(.14 0 0 -.14 141.828 221.319)"><defs><path id="DejaVuSans-36" d="M2113 2584q-425 0-674-291-248-290-248-796 0-503 248-796 249-292 674-292t673 292q248 293 248 796 0 506-248 796-248 291-673 291m1253 1979v-575q-238 112-480 171-242 60-480 60-625 0-955-422-329-422-376-1275 184 272 462 417 279 145 613 145 703 0 1111-427 408-426 408-1160 0-719-425-1154Q2819-91 2113-91q-810 0-1238 620-428 621-428 1799 0 1106 525 1764t1409 658q238 0 480-47t505-140" transform="scale(.01563)"/></defs><use xlink:href="#DejaVuSans-30"/><use xlink:href="#DejaVuSans-2e" transform="translate(63.623)"/><use xlink:href="#DejaVuSans-36" transform="translate(95.41)"/><use xlink:href="#DejaVuSans-30" transform="translate(159.033)"/></g></g><g id="ytick_4"><use xlink:href="#m711d6ee226" id="line2d_35" x="180" y="171" style="stroke:#000;stroke-width:.8"/><g id="text_8" transform="matrix(.14 0 0 -.14 141.828 176.319)"><use xlink:href="#DejaVuSans-30"/><use xlink:href="#DejaVuSans-2e" transform="translate(63.623)"/><use xlink:href="#DejaVuSans-36" transform="translate(95.41)"/><use xlink:href="#DejaVuSans-35" transform="translate(159.033)"/></g></g><g id="ytick_5"><use xlink:href="#m711d6ee226" id="line2d_36" x="180" y="126" style="stroke:#000;stroke-width:.8"/><g id="text_9" transform="matrix(.14 0 0 -.14 141.828 131.319)"><defs><path id="DejaVuSans-37" d="M525 4666h3000v-269L1831 0h-659l1594 4134H525z" transform="scale(.01563)"/></defs><use xlink:href="#DejaVuSans-30"/><use xlink:href="#DejaVuSans-2e" transform="translate(63.623)"/><use xlink:href="#DejaVuSans-37" transform="translate(95.41)"/><use xlink:href="#DejaVuSans-30" transform="translate(159.033)"/></g></g><g id="ytick_6"><use xlink:href="#m711d6ee226" id="line2d_37" x="180" y="81" style="stroke:#000;stroke-width:.8"/><g id="text_10" transform="matrix(.14 0 0 -.14 141.828 86.319)"><use xlink:href="#DejaVuSans-30"/><use xlink:href="#DejaVuSans-2e" transform="translate(63.623)"/><use xlink:href="#DejaVuSans-37" transform="translate(95.41)"/><use xlink:href="#DejaVuSans-35" transform="translate(159.033)"/></g></g><g id="ytick_7"><use xlink:href="#m711d6ee226" id="line2d_38" x="180" y="36" style="stroke:#000;stroke-width:.8"/><g id="text_11" transform="matrix(.14 0 0 -.14 141.828 41.319)"><defs><path id="DejaVuSans-38" d="M2034 2216q-450 0-708-241-257-241-257-662 0-422 257-663 258-241 708-241t709 242q260 243 260 662 0 421-258 662-257 241-711 241m-631 268q-406 100-633 378-226 279-226 679 0 559 398 884 399 325 1092 325 697 0 1094-325t397-884q0-400-227-679-226-278-629-378 456-106 710-416 255-309 255-755 0-679-414-1042Q2806-91 2034-91q-771 0-1186 362-414 363-414 1042 0 446 256 755 257 310 713 416m-231 997q0-362 226-565 227-203 636-203 407 0 636 203 230 203 230 565 0 363-230 566-229 203-636 203-409 0-636-203-226-203-226-566" transform="scale(.01563)"/></defs><use xlink:href="#DejaVuSans-30"/><use xlink:href="#DejaVuSans-2e" transform="translate(63.623)"/><use xlink:href="#DejaVuSans-38" transform="translate(95.41)"/><use xlink:href="#DejaVuSans-30" transform="translate(159.033)"/></g></g><g id="text_12" transform="matrix(0 -.14 -.14 0 134.917 218.404)"><defs><path id="DejaVuSans-46" d="M628 4666h2681v-532H1259V2759h1850v-531H1259V0H628z" transform="scale(.01563)"/><path id="DejaVuSans-6c" d="M603 4863h575V0H603z" transform="scale(.01563)"/><path id="DejaVuSans-54" d="M-19 4666h3947v-532H2272V0h-634v4134H-19z" transform="scale(.01563)"/><path id="DejaVuSans-73" d="M2834 3397v-544q-243 125-506 187-262 63-544 63-428 0-642-131t-214-394q0-200 153-314t616-217l197-44q612-131 870-370t258-667q0-488-386-773Q2250-91 1575-91q-281 0-586 55T347 128v594q319-166 628-249 309-82 613-82 406 0 624 139 219 139 219 392 0 234-158 359-157 125-692 241l-200 47q-534 112-772 345-237 233-237 639 0 494 350 762 350 269 994 269 318 0 599-47 282-46 519-140" transform="scale(.01563)"/><path id="DejaVuSans-4e" d="M628 4666h850L3547 763v3903h612V0h-850L1241 3903V0H628z" transform="scale(.01563)"/></defs><use xlink:href="#DejaVuSans-46"/><use xlink:href="#DejaVuSans-69" transform="translate(50.27)"/><use xlink:href="#DejaVuSans-6e" transform="translate(78.053)"/><use xlink:href="#DejaVuSans-61" transform="translate(141.432)"/><use xlink:href="#DejaVuSans-6c" transform="translate(202.71)"/><use xlink:href="#DejaVuSans-54" transform="translate(262.281)"/><use xlink:href="#DejaVuSans-65" transform="translate(306.365)"/><use xlink:href="#DejaVuSans-73" transform="translate(367.889)"/><use xlink:href="#DejaVuSans-74" transform="translate(419.988)"/><use xlink:href="#DejaVuSans-4e" transform="translate(490.984)"/><use xlink:href="#DejaVuSans-4c" transform="translate(565.79)"/><use xlink:href="#DejaVuSans-4c" transform="translate(621.502)"/></g></g><path id="line2d_39" d="m296.28 227.893 31.563-.617 23.876-7.546 23.876-14.718L376.991-1" clip-path="url(#pd2a365d677)" style="fill:none;stroke:#440154;stroke-width:1.5;stroke-linecap:square"/><path id="line2d_40" d="m296.28 234.864 31.563.637 23.876-6.71 23.876-15.749L376.854-1" clip-path="url(#pd2a365d677)" style="fill:none;stroke:#482475;stroke-width:1.5;stroke-linecap:square"/><path id="line2d_41" d="m296.28 240.612 31.563 1.542 23.876-6.645 23.876-19.274L377.91-1" clip-path="url(#pd2a365d677)" style="fill:none;stroke:#414487;stroke-width:1.5;stroke-linecap:square"/><path id="line2d_42" d="m296.28 244.847 31.563 3.5 23.876-6.32 23.876-20.791L378.419-1" clip-path="url(#pd2a365d677)" style="fill:none;stroke:#355f8d;stroke-width:1.5;stroke-linecap:square"/><path id="line2d_43" d="m296.28 247.546 31.563 5.875 23.876-5.05 23.876-21.99L381.215-1" clip-path="url(#pd2a365d677)" style="fill:none;stroke:#2a788e;stroke-width:1.5;stroke-linecap:square"/><path id="line2d_44" d="m296.28 248.697 31.563 8.093 23.876-2.9 23.876-22.484 31.562-128.2L407.69-1" clip-path="url(#pd2a365d677)" style="fill:none;stroke:#21918c;stroke-width:1.5;stroke-linecap:square"/><path id="line2d_45" d="m296.28 249.824 31.563 9.128 23.876-1.46 23.876-20.951 31.562-127.746.6-109.795" clip-path="url(#pd2a365d677)" style="fill:none;stroke:#22a884;stroke-width:1.5;stroke-linecap:square"/><path id="line2d_46" d="m296.28 250.205 31.563 10.156 23.876-.195 23.876-19.684 31.562-131.114L407.756-1" clip-path="url(#pd2a365d677)" style="fill:none;stroke:#44bf70;stroke-width:1.5;stroke-linecap:square"/><path id="line2d_47" d="m296.28 250.3 31.563 10.624 23.876.252 23.876-17.673 31.562-123.551L407.701-1" clip-path="url(#pd2a365d677)" style="fill:none;stroke:#7ad151;stroke-width:1.5;stroke-linecap:square"/><path id="line2d_48" d="m296.28 250.462 31.563 10.554 23.876 1.026 23.876-17.008 31.562-122.132L407.767-1" clip-path="url(#pd2a365d677)" style="fill:none;stroke:#bddf26;stroke-width:1.5;stroke-linecap:square"/><path id="line2d_49" d="m193.09 200.395 31.563 37.307 23.876 21.158 23.876 3.843 31.562-61.844 23.876-137.347L331.851-1" clip-path="url(#pd2a365d677)" style="fill:none;stroke:#FF8800;stroke-width:1.5;stroke-linecap:square"/><path id="patch_3" d="M180 306V36" style="fill:none;stroke:#000;stroke-width:.8;stroke-linejoin:miter;stroke-linecap:square"/><path id="patch_4" d="M468 306V36" style="fill:none;stroke:#000;stroke-width:.8;stroke-linejoin:miter;stroke-linecap:square"/><path id="patch_5" d="M180 306h288" style="fill:none;stroke:#000;stroke-width:.8;stroke-linejoin:miter;stroke-linecap:square"/><path id="patch_6" d="M180 36h288" style="fill:none;stroke:#000;stroke-width:.8;stroke-linejoin:miter;stroke-linecap:square"/><g id="legend_1"><g id="text_13" transform="matrix(.14 0 0 -.14 510.475 75.342)"><defs><path id="DejaVuSans-52" d="M2841 2188q203-69 395-294t386-619L4263 0h-679l-596 1197q-232 469-449 622t-592 153h-688V0H628v4666h1425q800 0 1194-335 394-334 394-1009 0-441-205-732-205-290-595-402M1259 4147V2491h794q456 0 689 211t233 620-233 617-689 208z" transform="scale(.01563)"/><path id="DejaVuSans-6b" d="M581 4863h578V1991l1716 1509h734L1753 1863 3688 0h-750L1159 1709V0H581z" transform="scale(.01563)"/></defs><use xlink:href="#DejaVuSans-52"/><use xlink:href="#DejaVuSans-61" transform="translate(67.232)"/><use xlink:href="#DejaVuSans-6e" transform="translate(128.512)"/><use xlink:href="#DejaVuSans-6b" transform="translate(191.89)"/></g><path id="line2d_50" d="M495 90.99h28" style="fill:none;stroke:#440154;stroke-width:1.5;stroke-linecap:square"/><use xlink:href="#DejaVuSans-31" id="text_14" transform="matrix(.14 0 0 -.14 534.2 95.89)"/><path id="line2d_51" d="M495 111.54h28" style="fill:none;stroke:#482475;stroke-width:1.5;stroke-linecap:square"/><g id="text_15" transform="matrix(.14 0 0 -.14 534.2 116.44)"><defs><path id="DejaVuSans-32" d="M1228 531h2203V0H469v531q359 372 979 998 621 627 780 809 303 340 423 576 121 236 121 464 0 372-261 606-261 235-680 235-297 0-627-103-329-103-704-313v638q381 153 712 231 332 78 607 78 725 0 1156-363 431-362 431-968 0-288-108-546-107-257-392-607-78-91-497-524-418-433-1181-1211" transform="scale(.01563)"/></defs><use xlink:href="#DejaVuSans-32"/></g><path id="line2d_52" d="M495 132.09h28" style="fill:none;stroke:#414487;stroke-width:1.5;stroke-linecap:square"/><use xlink:href="#DejaVuSans-34" id="text_16" transform="matrix(.14 0 0 -.14 534.2 136.99)"/><path id="line2d_53" d="M495 152.64h28" style="fill:none;stroke:#355f8d;stroke-width:1.5;stroke-linecap:square"/><use xlink:href="#DejaVuSans-38" id="text_17" transform="matrix(.14 0 0 -.14 534.2 157.54)"/><path id="line2d_54" d="M495 173.188h28" style="fill:none;stroke:#2a788e;stroke-width:1.5;stroke-linecap:square"/><g id="text_18" transform="matrix(.14 0 0 -.14 534.2 178.088)"><use xlink:href="#DejaVuSans-31"/><use xlink:href="#DejaVuSans-36" transform="translate(63.623)"/></g><path id="line2d_55" d="M495 193.738h28" style="fill:none;stroke:#21918c;stroke-width:1.5;stroke-linecap:square"/><g id="text_19" transform="matrix(.14 0 0 -.14 534.2 198.638)"><use xlink:href="#DejaVuSans-33"/><use xlink:href="#DejaVuSans-32" transform="translate(63.623)"/></g><path id="line2d_56" d="M495 214.287h28" style="fill:none;stroke:#22a884;stroke-width:1.5;stroke-linecap:square"/><g id="text_20" transform="matrix(.14 0 0 -.14 534.2 219.187)"><use xlink:href="#DejaVuSans-36"/><use xlink:href="#DejaVuSans-34" transform="translate(63.623)"/></g><path id="line2d_57" d="M495 234.837h28" style="fill:none;stroke:#44bf70;stroke-width:1.5;stroke-linecap:square"/><g id="text_21" transform="matrix(.14 0 0 -.14 534.2 239.737)"><use xlink:href="#DejaVuSans-31"/><use xlink:href="#DejaVuSans-32" transform="translate(63.623)"/><use xlink:href="#DejaVuSans-38" transform="translate(127.246)"/></g><path id="line2d_58" d="M495 255.386h28" style="fill:none;stroke:#7ad151;stroke-width:1.5;stroke-linecap:square"/><g id="text_22" transform="matrix(.14 0 0 -.14 534.2 260.286)"><use xlink:href="#DejaVuSans-32"/><use xlink:href="#DejaVuSans-35" transform="translate(63.623)"/><use xlink:href="#DejaVuSans-36" transform="translate(127.246)"/></g><path id="line2d_59" d="M495 275.935h28" style="fill:none;stroke:#bddf26;stroke-width:1.5;stroke-linecap:square"/><g id="text_23" transform="matrix(.14 0 0 -.14 534.2 280.835)"><use xlink:href="#DejaVuSans-35"/><use xlink:href="#DejaVuSans-31" transform="translate(63.623)"/><use xlink:href="#DejaVuSans-32" transform="translate(127.246)"/></g><path id="line2d_60" d="M495 296.485h28" style="fill:none;stroke:#FF8800;stroke-width:1.5;stroke-linecap:square"/><g id="text_24" transform="matrix(.14 0 0 -.14 534.2 301.385)"><defs><path id="DejaVuSans-66" d="M2375 4863v-479h-550q-309 0-430-125-120-125-120-450v-309h947v-447h-947V0H697v3053H147v447h550v244q0 584 272 851 272 268 862 268z" transform="scale(.01563)"/><path id="DejaVuSans-75" d="M544 1381v2119h575V1403q0-497 193-746 194-248 582-248 465 0 735 297 271 297 271 810v1984h575V0h-575v538q-209-319-486-474-276-155-642-155-603 0-916 375-312 375-312 1097m1447 2203" transform="scale(.01563)"/></defs><use xlink:href="#DejaVuSans-66"/><use xlink:href="#DejaVuSans-75" transform="translate(35.205)"/><use xlink:href="#DejaVuSans-6c" transform="translate(98.584)"/><use xlink:href="#DejaVuSans-6c" transform="translate(126.367)"/></g></g></g></g><defs><clipPath id="pd2a365d677"><path d="M180 36h288v270H180z"/></clipPath></defs></svg>